# xmcd CD database file
#
# Track frame offsets:
#	150
#	24524
#	48780
#	73411
#	96012
#	116767
#	138733
#	163470
#
# Disc length: 2561 seconds
#
# Revision: 0
# Processed by: cddbd v1.5.1PL0 Copyright (c) Steve Scherf et al.
# Submitted via: CDex 1.51
#
DISCID=7509ff08
DTITLE=Various Artist - Hans Koller Preis 2004
DYEAR=2004
DGENRE=Jazz
TTITLE0=1. Staatspreis für improvisierte Musik: Michael Mantler: Opening
TTITLE1=European Jazz Prize: e.s.t. - The Rube Thing
TTITLE2=Newcomer of the year: Lorenz Raab: Nascitura Time
TTITLE3=CD of the year: Day Dream: Let a song go out of my heart
TTITLE4=Side(wo)man of the year: Ingrid Oberkanins: Groovegarden
TTITLE5=N.Y.C. Stipendium: Wolfgang Schiftner: Da rumpelt die Kartoffel
TTITLE6=N.Y.C. Stipendium: Matthias Pichler: Bride
TTITLE7=1. Staatspreis für improvisierte Musik: Michael Mantler: Mark, nothing appears
EXTD=YEAR: 2004
EXTT0=
EXTT1=
EXTT2=
EXTT3=
EXTT4=
EXTT5=
EXTT6=
EXTT7=
PLAYORDER=
